<?xml version="1.0" standalone="no"?>
<!DOCTYPE svg PUBLIC "-//W3C//DTD SVG 20010904//EN"
 "http://www.w3.org/TR/2001/REC-SVG-20010904/DTD/svg10.dtd">
<svg version="1.0" xmlns="http://www.w3.org/2000/svg"
 width="80.000000pt" height="80.000000pt" viewBox="0 0 80.000000 80.000000"
 preserveAspectRatio="xMidYMid meet">
<metadata>
Created by potrace 1.10, written by Peter Selinger 2001-2011
</metadata>
<g transform="translate(0.000000,80.000000) scale(0.100000,-0.100000)"
fill="#000000" stroke="none">
<path d="M553 769 c-36 -10 -37 -15 -23 -73 7 -32 5 -43 -12 -67 -16 -22 -20
-37 -15 -70 6 -49 -5 -41 -21 16 -20 66 -76 133 -135 161 -54 25 -116 31 -133
14 -7 -7 -20 -7 -41 1 -42 14 -94 8 -107 -13 -16 -26 8 -103 52 -168 46 -68
108 -107 187 -119 39 -6 49 -9 27 -10 -82 -3 -131 -67 -140 -183 -6 -91 2
-125 48 -196 41 -63 60 -77 60 -43 0 12 9 20 28 24 86 17 167 132 160 227 -3
47 -1 50 20 50 50 0 89 79 63 129 -9 15 -4 16 55 13 109 -7 140 36 95 133 -18
41 -37 61 -73 80 -32 16 -23 29 26 39 48 10 63 26 24 26 -48 0 -98 -20 -98
-39 0 -20 -29 -37 -41 -24 -4 4 -9 22 -11 38 -3 29 -1 30 45 39 26 5 47 13 47
18 0 10 -46 9 -87 -3z m-327 -54 c50 -25 194 -152 194 -172 0 -6 -9 -13 -21
-16 -11 -3 -26 -20 -32 -37 -12 -31 -14 -32 -57 -26 -103 14 -194 96 -226 204
-13 43 -13 56 -3 68 17 21 76 12 145 -21z m129 1 c40 -21 107 -107 120 -153
12 -44 -22 -24 -107 60 -46 46 -99 89 -117 96 -23 10 -29 16 -19 22 19 12 76
0 123 -25z m320 -79 c39 -39 61 -107 45 -136 -12 -23 -81 -37 -128 -26 -92 20
-104 150 -17 186 39 16 67 9 100 -24z m-155 -136 c14 -10 31 -36 39 -57 12
-34 12 -44 0 -69 -19 -40 -68 -54 -115 -32 -36 17 -74 69 -74 100 0 28 28 75
47 80 29 8 76 -2 103 -22z m-190 -116 c24 -49 68 -88 118 -106 24 -8 32 -17
32 -35 0 -13 -5 -24 -10 -24 -23 0 -107 50 -136 82 -62 67 -79 113 -46 121 9
3 18 5 19 6 0 0 11 -19 23 -44z m-5 -153 c26 -23 65 -47 86 -54 22 -6 39 -12
39 -14 0 -16 -16 -34 -30 -34 -45 0 -210 138 -210 176 0 41 13 43 40 6 15 -21
49 -57 75 -80z m3 -123 c47 -27 51 -35 22 -44 -13 -4 -36 2 -63 18 -55 32 -73
54 -82 97 l-8 35 45 -41 c25 -23 64 -52 86 -65z"/>
<path d="M590 624 c-32 -38 36 -106 74 -74 22 17 20 46 -4 70 -24 24 -53 26
-70 4z"/>
</g>
</svg>
